# xmcd
#
# Track frame offsets: 
#        150
#        32467
#        76131
#        106907
#        144274
#        167246
#        184336
#        229803
#        248017
#
# Disc length: 3450 seconds
#
# Revision: 0
# Processed by: cddbd v1.4PL0 Copyright (c) Steve Scherf et al.
# Submitted via: ExactAudioCopy v0.90b4
#
DISCID=670d7809
DTITLE=Rory Gallagher - Live at Parkwest
DYEAR=1900
DGENRE=Blues
TTITLE0=Bought And Sold
TTITLE1=Garbage Man
TTITLE2=Secret Agent
TTITLE3=A Million Miles Away
TTITLE4=Shadow Play
TTITLE5=Country Mile
TTITLE6=Tatto'd Lady
TTITLE7=Sea Cruise
TTITLE8=Bullfrog Blues
EXTD=
EXTT0=
EXTT1=
EXTT2=
EXTT3=
EXTT4=
EXTT5=
EXTT6=
EXTT7=
EXTT8=
PLAYORDER=
